<svg width="512" height="512" viewBox="0 0 512 512" fill="none" xmlns="http://www.w3.org/2000/svg">
<rect width="512" height="512" fill="#292524"/>
<mask id="mask0_1_2" style="mask-type:luminance" maskUnits="userSpaceOnUse" x="184" y="172" width="138" height="137">
<path d="M321.025 172.303H184.571V308.698H321.025V172.303Z" fill="white"/>
</mask>
<g mask="url(#mask0_1_2)">
<path d="M235.745 297.331C238.886 297.331 241.431 294.787 241.431 291.648C241.431 288.51 238.886 285.966 235.745 285.966C232.606 285.966 230.059 288.51 230.059 291.648C230.059 294.787 232.606 297.331 235.745 297.331Z" stroke="#F5F5F4" stroke-width="4" stroke-linecap="round" stroke-linejoin="round"/>
<path d="M298.286 297.331C301.426 297.331 303.971 294.787 303.971 291.648C303.971 288.51 301.426 285.966 298.286 285.966C295.145 285.966 292.6 288.51 292.6 291.648C292.6 294.787 295.145 297.331 298.286 297.331Z" stroke="#F5F5F4" stroke-width="4" stroke-linecap="round" stroke-linejoin="round"/>
<path d="M190.262 177.992H213.005L228.241 254.089C228.761 256.706 230.185 259.056 232.264 260.728C234.343 262.402 236.944 263.291 239.613 263.239H294.877C297.544 263.291 300.145 262.402 302.224 260.728C304.303 259.056 305.727 256.706 306.247 254.089L315.344 206.408H218.69" stroke="#F5F5F4" stroke-width="10" stroke-linecap="round" stroke-linejoin="round"/>
</g>
<path d="M207.32 308.701C207.32 308.701 228.64 337.116 264.175 337.116C299.71 337.116 321.031 308.701 321.031 308.701" stroke="#F5F5F4" stroke-width="8" stroke-linecap="round" stroke-linejoin="round"/>
<path fill-rule="evenodd" clip-rule="evenodd" d="M263.149 415.051C353.881 415.051 427.434 341.529 427.434 250.836C427.434 160.141 353.881 86.6195 263.149 86.6195C172.416 86.6195 98.8627 160.141 98.8627 250.836C98.8627 280.287 106.619 307.928 120.202 331.828L102.943 399.137C101.084 406.389 107.577 413.031 114.874 411.34L184.701 395.155C208.011 407.842 234.738 415.051 263.149 415.051ZM263.149 389.787C339.922 389.787 402.159 327.577 402.159 250.836C402.159 174.095 339.922 111.883 263.149 111.883C186.375 111.883 124.137 174.095 124.137 250.836C124.137 280.465 133.416 307.929 149.226 330.483L136.775 377.155L184.29 365.282C206.697 380.737 233.865 389.787 263.149 389.787Z" fill="#F5F5F4"/>
<path d="M80.9666 207.807H80.9665C72.693 207.807 65.986 214.511 65.986 222.781V262.712C65.986 270.982 72.693 277.686 80.9665 277.686H80.9666C89.2401 277.686 95.9471 270.982 95.9471 262.712V222.781C95.9471 214.511 89.2401 207.807 80.9666 207.807Z" fill="#F5F5F4"/>
<path d="M95.9462 187.837H95.9461C84.9148 187.837 75.9721 196.776 75.9721 207.803V277.682C75.9721 288.708 84.9148 297.647 95.9461 297.647H95.9462C106.977 297.647 115.92 288.708 115.92 277.682V207.803C115.92 196.776 106.977 187.837 95.9462 187.837Z" fill="#F5F5F4"/>
<path d="M440.497 207.807H440.497C448.771 207.807 455.478 214.511 455.478 222.781V262.712C455.478 270.982 448.771 277.686 440.497 277.686H440.497C432.224 277.686 425.517 270.982 425.517 262.712V222.781C425.517 214.511 432.224 207.807 440.497 207.807Z" fill="#F5F5F4"/>
<path d="M425.516 187.837H425.516C436.548 187.837 445.49 196.776 445.49 207.803V277.682C445.49 288.708 436.548 297.647 425.516 297.647H425.516C414.485 297.647 405.542 288.708 405.542 277.682V207.803C405.542 196.776 414.485 187.837 425.516 187.837Z" fill="#F5F5F4"/>
</svg>
